<svg width="16" height="16" viewBox="0 0 16 16" fill="none" xmlns="http://www.w3.org/2000/svg">
<path fill-rule="evenodd" clip-rule="evenodd" d="M0.5 0.249512V11.9162H9.82792V11.0828H1.33333V1.08285H12.5833V1.96618H13.4167V0.249512H0.5ZM13.4167 4.41618C13.4167 4.63719 13.3289 4.84915 13.1726 5.00543C13.0163 5.16171 12.8043 5.24951 12.5833 5.24951C12.3623 5.24951 12.1504 5.16171 11.9941 5.00543C11.8378 4.84915 11.75 4.63719 11.75 4.41618C11.75 4.19516 11.8378 3.9832 11.9941 3.82692C12.1504 3.67064 12.3623 3.58284 12.5833 3.58284C12.8043 3.58284 13.0163 3.67064 13.1726 3.82692C13.3289 3.9832 13.4167 4.19516 13.4167 4.41618ZM14.25 4.41618C14.25 4.85821 14.0744 5.28213 13.7618 5.59469C13.4493 5.90725 13.0254 6.08284 12.5833 6.08284C12.1413 6.08284 11.7174 5.90725 11.4048 5.59469C11.0923 5.28213 10.9167 4.85821 10.9167 4.41618C10.9167 3.97415 11.0923 3.55023 11.4048 3.23767C11.7174 2.92511 12.1413 2.74951 12.5833 2.74951C13.0254 2.74951 13.4493 2.92511 13.7618 3.23767C14.0744 3.55023 14.25 3.97415 14.25 4.41618Z" fill="black"/>
<path fill-rule="evenodd" clip-rule="evenodd" d="M10.5387 6.84535C10.7711 6.62352 11.08 6.49967 11.4012 6.49951H13.1021C13.7121 6.49951 14.28 6.70701 14.7175 7.12035C15.1383 7.51785 15.3575 8.02743 15.4471 8.51035C15.5879 9.26951 15.4421 10.0991 15.0833 10.8345V14.2078C15.0833 14.4692 14.9851 14.7211 14.808 14.9134C14.631 15.1057 14.3881 15.2244 14.1276 15.246C13.8671 15.2676 13.608 15.1904 13.4017 15.0298C13.1955 14.8692 13.0571 14.6369 13.0142 14.3791L12.7917 13.0441L12.5692 14.3791C12.5262 14.6369 12.3879 14.8692 12.1816 15.0298C11.9753 15.1904 11.7162 15.2676 11.4557 15.246C11.1952 15.2244 10.9523 15.1057 10.7753 14.9134C10.5983 14.7211 10.5 14.4692 10.5 14.2078V10.2883C10.31 10.398 10.0944 10.4558 9.87499 10.4558H7.74916C7.41764 10.4558 7.09969 10.3241 6.86527 10.0896C6.63085 9.85522 6.49916 9.53728 6.49916 9.20576C6.49916 8.87424 6.63085 8.5563 6.86527 8.32188C7.09969 8.08746 7.41764 7.95576 7.74916 7.95576H9.37416L10.5387 6.84535ZM11.3333 14.2078C11.3335 14.26 11.3532 14.3103 11.3886 14.3486C11.424 14.387 11.4725 14.4106 11.5245 14.4149C11.5765 14.4192 11.6282 14.4038 11.6695 14.3718C11.7107 14.3398 11.7384 14.2935 11.7471 14.242L12.1817 11.6353C12.1978 11.5381 12.248 11.4497 12.3232 11.3859C12.3984 11.3221 12.4939 11.2871 12.5925 11.287H12.9908C13.0895 11.2871 13.1849 11.3221 13.2601 11.3859C13.3353 11.4497 13.3855 11.5381 13.4017 11.6353L13.8362 14.242C13.8449 14.2935 13.8726 14.3398 13.9138 14.3718C13.9551 14.4038 14.0068 14.4192 14.0588 14.4149C14.1108 14.4106 14.1593 14.387 14.1947 14.3486C14.2301 14.3103 14.2498 14.26 14.25 14.2078V10.7353C14.25 10.6686 14.266 10.6029 14.2967 10.5437C14.6183 9.92285 14.7354 9.24243 14.6279 8.66243C14.5625 8.30993 14.4096 7.97576 14.1454 7.72618C13.8758 7.47159 13.5183 7.33285 13.1021 7.33285H11.4017C11.2946 7.33285 11.1912 7.37409 11.1137 7.44784L9.82874 8.67368C9.7513 8.74767 9.64834 8.789 9.54124 8.78909H7.74916C7.63865 8.78909 7.53267 8.83299 7.45453 8.91113C7.37639 8.98927 7.33249 9.09526 7.33249 9.20576C7.33249 9.31627 7.37639 9.42225 7.45453 9.50039C7.53267 9.57853 7.63865 9.62243 7.74916 9.62243H9.87499C9.9821 9.62234 10.0851 9.58101 10.1625 9.50701L10.6292 9.06201C10.6882 9.00573 10.7625 8.96801 10.8427 8.95354C10.923 8.93907 11.0058 8.94848 11.0807 8.9806C11.1557 9.01272 11.2196 9.06614 11.2645 9.13424C11.3094 9.20233 11.3333 9.28211 11.3333 9.36368V14.2078Z" fill="black"/>
</svg>
