<svg width="18" height="18" viewBox="0 0 18 18" fill="none" xmlns="http://www.w3.org/2000/svg">
<path d="M8.99985 3.61426L9.00902 3.60463M12.3332 5.28092L12.3423 5.2713M5.66652 5.28092L5.67568 5.2713M13.9998 8.61426L14.009 8.60463M3.99985 8.61426L4.00902 8.60463M13.1665 11.9476L13.1757 11.938M4.83318 11.9476L4.84235 11.938M8.99985 11.9388L9.83318 6.9388M8.99985 11.9388C9.66289 11.9388 10.2988 12.2022 10.7676 12.671C11.2365 13.1399 11.4998 13.7758 11.4998 14.4388C11.4998 15.1018 11.2365 15.7377 10.7676 16.2066C10.2988 16.6754 9.66289 16.9388 8.99985 16.9388C8.33681 16.9388 7.70092 16.6754 7.23208 16.2066C6.76324 15.7377 6.49985 15.1018 6.49985 14.4388C6.49985 13.7758 6.76324 13.1399 7.23208 12.671C7.70092 12.2022 8.33681 11.9388 8.99985 11.9388ZM6.08318 14.4396H2.33318C1.24877 12.9982 0.663675 11.2426 0.666514 9.4388C0.666514 4.8363 4.39735 1.10547 8.99985 1.10547C13.6023 1.10547 17.3332 4.8363 17.3332 9.4388C17.3332 11.3155 16.7132 13.0471 15.6665 14.4396L11.9165 14.4388" stroke="white" stroke-linecap="round" stroke-linejoin="round"/>
</svg>
