<svg width="15" height="20" viewBox="0 0 15 20" fill="none" xmlns="http://www.w3.org/2000/svg">
<path d="M2.7085 0.510254L2.7085 0.0102539L2.7085 0.510254ZM9.20504 0.510254L9.57502 0.173932C9.48026 0.0696859 9.34592 0.0102539 9.20504 0.0102539V0.510254ZM13.7293 5.48736H14.2293C14.2293 5.36298 14.183 5.24307 14.0993 5.15104L13.7293 5.48736ZM1.271 1.94775L1.771 1.94775L1.271 1.94775ZM3.18766 13.4269C2.91152 13.4269 2.68766 13.6508 2.68766 13.9269C2.68766 14.2031 2.91152 14.4269 3.18766 14.4269V13.4269ZM11.8127 14.4269C12.0888 14.4269 12.3127 14.2031 12.3127 13.9269C12.3127 13.6508 12.0888 13.4269 11.8127 13.4269V14.4269ZM3.18766 15.3436C2.91152 15.3436 2.68766 15.5674 2.68766 15.8436C2.68766 16.1197 2.91152 16.3436 3.18766 16.3436V15.3436ZM8.93766 16.3436C9.2138 16.3436 9.43766 16.1197 9.43766 15.8436C9.43766 15.5674 9.2138 15.3436 8.93766 15.3436V16.3436ZM3.18766 11.5311L2.72612 11.3388C2.66183 11.4931 2.6789 11.6693 2.77164 11.8084C2.86437 11.9475 3.02049 12.0311 3.18766 12.0311V11.5311ZM5.5835 5.78109L6.04503 5.58878C5.9674 5.40246 5.78535 5.28109 5.5835 5.28109C5.38165 5.28109 5.19959 5.40246 5.12196 5.58878L5.5835 5.78109ZM7.97933 11.5311V12.0311C8.14651 12.0311 8.30262 11.9475 8.39535 11.8084C8.48809 11.6693 8.50517 11.4931 8.44087 11.3388L7.97933 11.5311ZM3.78662 9.59359C3.51048 9.59359 3.28662 9.81744 3.28662 10.0936C3.28662 10.3697 3.51048 10.5936 3.78662 10.5936V9.59359ZM7.38037 10.5936C7.65651 10.5936 7.88037 10.3697 7.88037 10.0936C7.88037 9.81744 7.65651 9.59359 7.38037 9.59359V10.5936ZM10.8752 8.65609C10.8752 8.37995 10.6513 8.15609 10.3752 8.15609C10.099 8.15609 9.87516 8.37995 9.87516 8.65609H10.8752ZM9.87516 11.5311C9.87516 11.8072 10.099 12.0311 10.3752 12.0311C10.6513 12.0311 10.8752 11.8072 10.8752 11.5311H9.87516ZM8.93766 9.59359C8.66152 9.59359 8.43766 9.81744 8.43766 10.0936C8.43766 10.3697 8.66152 10.5936 8.93766 10.5936V9.59359ZM11.8127 10.5936C12.0888 10.5936 12.3127 10.3697 12.3127 10.0936C12.3127 9.81744 12.0888 9.59359 11.8127 9.59359V10.5936ZM2.7085 1.01025H9.20504V0.0102539H2.7085V1.01025ZM8.83505 0.846576L13.3593 5.82368L14.0993 5.15104L9.57502 0.173932L8.83505 0.846576ZM13.2293 5.48736V17.2811H14.2293V5.48736H13.2293ZM13.2293 17.2811C13.2293 17.5297 13.1306 17.7682 12.9547 17.944L13.6618 18.6511C14.0252 18.2878 14.2293 17.7949 14.2293 17.2811H13.2293ZM12.9547 17.944C12.7789 18.1198 12.5405 18.2186 12.2918 18.2186V19.2186C12.8057 19.2186 13.2985 19.0145 13.6618 18.6511L12.9547 17.944ZM12.2918 18.2186H2.7085V19.2186H12.2918V18.2186ZM2.7085 18.2186C2.45986 18.2186 2.2214 18.1198 2.04558 17.944L1.33848 18.6511C1.70183 19.0145 2.19464 19.2186 2.7085 19.2186V18.2186ZM2.04558 17.944C1.86977 17.7682 1.771 17.5297 1.771 17.2811H0.770996C0.770996 17.7949 0.975125 18.2878 1.33848 18.6511L2.04558 17.944ZM1.771 17.2811V1.94775H0.770996V17.2811H1.771ZM1.771 1.94775C1.771 1.69911 1.86977 1.46066 2.04558 1.28484L1.33848 0.577735C0.975125 0.941086 0.770996 1.4339 0.770996 1.94775L1.771 1.94775ZM2.04558 1.28484C2.2214 1.10903 2.45986 1.01025 2.7085 1.01025L2.7085 0.0102539C2.19464 0.0102539 1.70183 0.214383 1.33848 0.577735L2.04558 1.28484ZM3.18766 14.4269H11.8127V13.4269H3.18766V14.4269ZM3.18766 16.3436H8.93766V15.3436H3.18766V16.3436ZM3.6492 11.7234L6.04503 5.9734L5.12196 5.58878L2.72612 11.3388L3.6492 11.7234ZM5.12196 5.9734L7.51779 11.7234L8.44087 11.3388L6.04503 5.58878L5.12196 5.9734ZM7.97933 11.0311H3.18766V12.0311H7.97933V11.0311ZM3.78662 10.5936H7.38037V9.59359H3.78662V10.5936ZM9.87516 8.65609V11.5311H10.8752V8.65609H9.87516ZM8.93766 10.5936H11.8127V9.59359H8.93766V10.5936Z" fill="black"/>
</svg>
