<svg aria-hidden="true" style="position: absolute; width: 0; height: 0; overflow: hidden;" version="1.1" xmlns="http://www.w3.org/2000/svg" xmlns:xlink="http://www.w3.org/1999/xlink">
<defs>
<symbol id="icon-locked" viewBox="0 0 24 24">
<path d="M18 20.016v-10.031h-12v10.031h12zM8.906 6v2.016h6.188v-2.016q0-1.266-0.914-2.18t-2.18-0.914-2.18 0.914-0.914 2.18zM18 8.016q0.797 0 1.406 0.586t0.609 1.383v10.031q0 0.797-0.609 1.383t-1.406 0.586h-12q-0.797 0-1.406-0.586t-0.609-1.383v-10.031q0-0.797 0.609-1.383t1.406-0.586h0.984v-2.016q0-2.063 1.477-3.539t3.539-1.477 3.539 1.477 1.477 3.539v2.016h0.984zM12 17.016q-0.797 0-1.406-0.609t-0.609-1.406 0.609-1.406 1.406-0.609 1.406 0.609 0.609 1.406-0.609 1.406-1.406 0.609z"></path>
</symbol>
<symbol id="icon-unlocked" viewBox="0 0 24 24">
<path d="M18 20.016v-10.031h-12v10.031h12zM18 8.016q0.797 0 1.406 0.586t0.609 1.383v10.031q0 0.797-0.609 1.383t-1.406 0.586h-12q-0.797 0-1.406-0.586t-0.609-1.383v-10.031q0-0.797 0.609-1.383t1.406-0.586h9.094v-2.016q0-1.266-0.914-2.18t-2.18-0.914-2.18 0.914-0.914 2.18h-1.922q0-2.063 1.477-3.539t3.539-1.477 3.539 1.477 1.477 3.539v2.016h0.984zM12 17.016q-0.797 0-1.406-0.609t-0.609-1.406 0.609-1.406 1.406-0.609 1.406 0.609 0.609 1.406-0.609 1.406-1.406 0.609z"></path>
</symbol>
<symbol id="icon-chevron-right" viewBox="0 0 24 24">
<path d="M9.707 18.707l6-6c0.391-0.391 0.391-1.024 0-1.414l-6-6c-0.391-0.391-1.024-0.391-1.414 0s-0.391 1.024 0 1.414l5.293 5.293-5.293 5.293c-0.391 0.391-0.391 1.024 0 1.414s1.024 0.391 1.414 0z"></path>
</symbol>
<symbol id="icon-star" viewBox="0 0 32 32">
<path d="M32 12.408l-11.056-1.607-4.944-10.018-4.944 10.018-11.056 1.607 8 7.798-1.889 11.011 9.889-5.199 9.889 5.199-1.889-11.011 8-7.798z"></path>
</symbol>
<symbol id="icon-g-plus" viewBox="0 0 32 32">
<path d="M10.181 14.294v3.494h5.775c-0.231 1.5-1.744 4.394-5.775 4.394-3.475 0-6.313-2.881-6.313-6.431s2.838-6.431 6.313-6.431c1.981 0 3.3 0.844 4.056 1.569l2.762-2.662c-1.775-1.656-4.075-2.662-6.819-2.662-5.631 0.006-10.181 4.556-10.181 10.188s4.55 10.181 10.181 10.181c5.875 0 9.775-4.131 9.775-9.95 0-0.669-0.075-1.181-0.163-1.688h-9.613z"></path>
<path d="M32 14h-3v-3h-3v3h-3v3h3v3h3v-3h3z"></path>
</symbol>
<symbol id="icon-facebook" viewBox="0 0 32 32">
<path d="M19 6h5v-6h-5c-3.86 0-7 3.14-7 7v3h-4v6h4v16h6v-16h5l1-6h-6v-3c0-0.542 0.458-1 1-1z"></path>
</symbol>
<symbol id="icon-whatsapp" viewBox="0 0 32 32">
<path d="M27.281 4.65c-2.994-3-6.975-4.65-11.219-4.65-8.738 0-15.85 7.112-15.85 15.856 0 2.794 0.731 5.525 2.119 7.925l-2.25 8.219 8.406-2.206c2.319 1.262 4.925 1.931 7.575 1.931h0.006c0 0 0 0 0 0 8.738 0 15.856-7.113 15.856-15.856 0-4.238-1.65-8.219-4.644-11.219zM16.069 29.050v0c-2.369 0-4.688-0.637-6.713-1.837l-0.481-0.288-4.987 1.306 1.331-4.863-0.313-0.5c-1.325-2.094-2.019-4.519-2.019-7.012 0-7.269 5.912-13.181 13.188-13.181 3.519 0 6.831 1.375 9.319 3.862 2.488 2.494 3.856 5.8 3.856 9.325-0.006 7.275-5.919 13.188-13.181 13.188zM23.294 19.175c-0.394-0.2-2.344-1.156-2.706-1.288s-0.625-0.2-0.894 0.2c-0.262 0.394-1.025 1.288-1.256 1.556-0.231 0.262-0.462 0.3-0.856 0.1s-1.675-0.619-3.188-1.969c-1.175-1.050-1.975-2.35-2.206-2.744s-0.025-0.613 0.175-0.806c0.181-0.175 0.394-0.463 0.594-0.694s0.262-0.394 0.394-0.662c0.131-0.262 0.069-0.494-0.031-0.694s-0.894-2.15-1.219-2.944c-0.319-0.775-0.65-0.669-0.894-0.681-0.231-0.012-0.494-0.012-0.756-0.012s-0.694 0.1-1.056 0.494c-0.363 0.394-1.387 1.356-1.387 3.306s1.419 3.831 1.619 4.1c0.2 0.262 2.794 4.269 6.769 5.981 0.944 0.406 1.681 0.65 2.256 0.837 0.95 0.3 1.813 0.256 2.494 0.156 0.762-0.113 2.344-0.956 2.675-1.881s0.331-1.719 0.231-1.881c-0.094-0.175-0.356-0.275-0.756-0.475z"></path>
</symbol>
<symbol id="icon-twitter" viewBox="0 0 32 32">
<path d="M32 7.075c-1.175 0.525-2.444 0.875-3.769 1.031 1.356-0.813 2.394-2.1 2.887-3.631-1.269 0.75-2.675 1.3-4.169 1.594-1.2-1.275-2.906-2.069-4.794-2.069-3.625 0-6.563 2.938-6.563 6.563 0 0.512 0.056 1.012 0.169 1.494-5.456-0.275-10.294-2.888-13.531-6.862-0.563 0.969-0.887 2.1-0.887 3.3 0 2.275 1.156 4.287 2.919 5.463-1.075-0.031-2.087-0.331-2.975-0.819 0 0.025 0 0.056 0 0.081 0 3.181 2.263 5.838 5.269 6.437-0.55 0.15-1.131 0.231-1.731 0.231-0.425 0-0.831-0.044-1.237-0.119 0.838 2.606 3.263 4.506 6.131 4.563-2.25 1.762-5.075 2.813-8.156 2.813-0.531 0-1.050-0.031-1.569-0.094 2.913 1.869 6.362 2.95 10.069 2.95 12.075 0 18.681-10.006 18.681-18.681 0-0.287-0.006-0.569-0.019-0.85 1.281-0.919 2.394-2.075 3.275-3.394z"></path>
</symbol>
<symbol id="icon-cart" viewBox="0 0 21 32">
<path d="M15.822 7.237v-3.506c0-2.057-1.669-3.731-3.72-3.731s-3.72 1.674-3.72 3.731v3.506h-1.971v-2.909c0-1.081 0.766-2.025 1.821-2.245l0.045-0.009 0.019-0.042c0.21-0.471 0.501-0.895 0.864-1.258l0.132-0.133-0.186-0.020c-0.145-0.016-0.279-0.024-0.409-0.024-2.051 0-3.72 1.674-3.72 3.731v2.909h-2.409l-1.892 1.666-0.673 21.435-0.002 0.073 2.581 0.616 18.753 0.002v-23.793h-5.511zM14.388 7.237h-1.971v-2.909c0-0.845-0.279-1.645-0.806-2.312l-0.039-0.050-0.060 0.020c-0.431 0.147-0.791 0.448-1.013 0.846l-0.029 0.052 0.036 0.047c0.312 0.406 0.477 0.889 0.477 1.396v2.909h-1.167v-3.506c0-1.264 1.025-2.293 2.286-2.293s2.286 1.029 2.286 2.293v3.506z"></path>
<path fill="#ff6b00" style="fill: var(--color2, #ff6b00)" d="M11.648 14.545l-6.801 2.644v7.696l2.495-0.897v-6.327l4.893-1.3v9.044l-7.388-0.519 6.997 2.266 3.67-1.039v-10.623l-3.865-0.944z"></path>
</symbol>
<symbol id="icon-courses" viewBox="0 0 32 32">
<path d="M1 0.499v23.333h18.656v-1.667h-16.989v-20h22.5v1.767h1.667v-3.433h-25.833zM26.833 8.832c0 0.442-0.176 0.866-0.488 1.178s-0.737 0.488-1.179 0.488c-0.442 0-0.866-0.176-1.178-0.488s-0.488-0.736-0.488-1.178c0-0.442 0.176-0.866 0.488-1.179s0.736-0.488 1.178-0.488c0.442 0 0.866 0.176 1.179 0.488s0.488 0.736 0.488 1.179zM28.5 8.832c0 0.884-0.351 1.732-0.976 2.357s-1.473 0.976-2.357 0.976c-0.884 0-1.732-0.351-2.357-0.976s-0.976-1.473-0.976-2.357 0.351-1.732 0.976-2.357c0.625-0.625 1.473-0.976 2.357-0.976s1.732 0.351 2.357 0.976c0.625 0.625 0.976 1.473 0.976 2.357z"></path>
<path d="M21.077 13.691c0.465-0.444 1.083-0.691 1.725-0.692h3.402c1.22 0 2.356 0.415 3.231 1.242 0.842 0.795 1.28 1.814 1.459 2.78 0.282 1.518-0.010 3.177-0.728 4.648v6.747c0 0.523-0.196 1.027-0.551 1.411s-0.84 0.622-1.361 0.665-1.039-0.111-1.452-0.432c-0.412-0.321-0.689-0.786-0.775-1.301l-0.445-2.67-0.445 2.67c-0.086 0.516-0.363 0.98-0.775 1.301s-0.931 0.476-1.452 0.432c-0.521-0.043-1.007-0.281-1.361-0.665s-0.551-0.888-0.551-1.411v-7.839c-0.38 0.219-0.811 0.335-1.25 0.335h-4.252c-0.663 0-1.299-0.263-1.768-0.732s-0.732-1.105-0.732-1.768 0.263-1.299 0.732-1.768c0.469-0.469 1.105-0.732 1.768-0.732h3.25l2.329-2.221zM22.667 28.416c0 0.104 0.040 0.205 0.111 0.282s0.168 0.124 0.272 0.133 0.207-0.022 0.29-0.086c0.082-0.064 0.138-0.157 0.155-0.26l0.869-5.213c0.032-0.194 0.133-0.371 0.283-0.499s0.341-0.198 0.539-0.198h0.797c0.197 0 0.388 0.070 0.539 0.198s0.251 0.304 0.283 0.499l0.869 5.213c0.017 0.103 0.073 0.196 0.155 0.26s0.186 0.095 0.29 0.086 0.201-0.056 0.272-0.133c0.071-0.077 0.11-0.177 0.111-0.282v-6.945c0-0.133 0.032-0.265 0.093-0.383 0.643-1.242 0.877-2.603 0.662-3.763-0.131-0.705-0.437-1.373-0.965-1.873-0.539-0.509-1.254-0.787-2.087-0.787h-3.401c-0.214 0-0.421 0.082-0.576 0.23l-2.57 2.452c-0.155 0.148-0.361 0.231-0.575 0.231h-3.584c-0.221 0-0.433 0.088-0.589 0.244s-0.244 0.368-0.244 0.589c0 0.221 0.088 0.433 0.244 0.589s0.368 0.244 0.589 0.244h4.252c0.214-0 0.42-0.083 0.575-0.231l0.933-0.89c0.118-0.113 0.267-0.188 0.427-0.217s0.326-0.010 0.476 0.054c0.15 0.064 0.278 0.171 0.368 0.307s0.138 0.296 0.138 0.459v9.688z"></path>
</symbol>
<symbol id="icon-dashboard" viewBox="0 0 32 32">
<path d="M16 8c0.552 0 1 0.448 1 1v0 3c0 0.552-0.448 1-1 1s-1-0.448-1-1v0-3c0-0.552 0.448-1 1-1v0zM7.464 11.464c0.181-0.181 0.431-0.293 0.707-0.293s0.526 0.112 0.707 0.293l1.83 1.828c0.181 0.181 0.293 0.431 0.293 0.708 0 0.553-0.448 1.001-1.001 1.001-0.277 0-0.527-0.112-0.708-0.293v0l-1.828-1.83c-0.181-0.181-0.293-0.431-0.293-0.707s0.112-0.526 0.293-0.707v0zM4 20c0-0.552 0.448-1 1-1v0h3.172c0.552 0 1 0.448 1 1s-0.448 1-1 1v0h-3.172c-0.552 0-1-0.448-1-1v0zM23 20c0-0.552 0.448-1 1-1v0h3c0.552 0 1 0.448 1 1s-0.448 1-1 1v0h-3c-0.552 0-1-0.448-1-1v0zM24.508 11.508c-0.141-0.14-0.335-0.226-0.549-0.226-0.193 0-0.37 0.071-0.506 0.187l0.001-0.001-8.36 7.152c-0.397 0.336-0.647 0.835-0.647 1.392 0 1.005 0.815 1.82 1.82 1.82 0.579 0 1.095-0.27 1.428-0.692l0.003-0.004 6.868-8.594c0.106-0.132 0.17-0.301 0.17-0.486 0-0.215-0.087-0.41-0.228-0.55v0z"></path>
<path d="M0 20c0.008-8.83 7.168-15.986 16-15.986 8.837 0 16 7.163 16 16 0 1.902-0.332 3.727-0.941 5.419l0.035-0.112c-0.884 2.506-3.69 3.204-5.864 2.5-2.612-0.846-6.28-1.822-9.23-1.822-2.948 0-6.62 0.976-9.23 1.822-2.174 0.704-4.98 0.006-5.864-2.5-0.574-1.58-0.906-3.403-0.906-5.304 0-0.006 0-0.013 0-0.019v0.001zM16 6c-0.001 0-0.002 0-0.004 0-7.732 0-14 6.268-14 14 0 1.67 0.292 3.271 0.828 4.756l-0.031-0.098c0.406 1.15 1.846 1.752 3.36 1.26 2.64-0.852 6.562-1.918 9.846-1.918s7.208 1.064 9.846 1.92c1.514 0.49 2.954-0.112 3.36-1.262 0.505-1.387 0.798-2.988 0.798-4.658 0-7.732-6.268-14-14-14-0.001 0-0.003 0-0.004 0h0z"></path>
</symbol>
<symbol id="icon-exams" viewBox="0 0 24 32">
<path d="M4.334 0.816v0zM14.728 0.816l0.592-0.538c-0.152-0.167-0.367-0.262-0.592-0.262v0.8zM21.967 8.78h0.8c0-0.199-0.074-0.391-0.208-0.538l-0.592 0.538zM2.034 3.116v0zM5.1 21.483c-0.442 0-0.8 0.358-0.8 0.8s0.358 0.8 0.8 0.8v-1.6zM18.9 23.083c0.442 0 0.8-0.358 0.8-0.8s-0.358-0.8-0.8-0.8v1.6zM5.1 24.55c-0.442 0-0.8 0.358-0.8 0.8s0.358 0.8 0.8 0.8v-1.6zM14.3 26.15c0.442 0 0.8-0.358 0.8-0.8s-0.358-0.8-0.8-0.8v1.6zM5.1 18.45l-0.738-0.308c-0.103 0.247-0.076 0.529 0.073 0.751s0.398 0.356 0.666 0.356v-0.8zM8.934 9.25l0.738-0.308c-0.124-0.298-0.415-0.492-0.738-0.492s-0.614 0.194-0.738 0.492l0.738 0.308zM12.767 18.45v0.8c0.268 0 0.517-0.134 0.666-0.356s0.176-0.504 0.073-0.751l-0.738 0.308zM6.059 15.35c-0.442 0-0.8 0.358-0.8 0.8s0.358 0.8 0.8 0.8v-1.6zM11.809 16.95c0.442 0 0.8-0.358 0.8-0.8s-0.358-0.8-0.8-0.8v1.6zM17.4 13.85c0-0.442-0.358-0.8-0.8-0.8s-0.8 0.358-0.8 0.8h1.6zM15.8 18.45c0 0.442 0.358 0.8 0.8 0.8s0.8-0.358 0.8-0.8h-1.6zM14.3 15.35c-0.442 0-0.8 0.358-0.8 0.8s0.358 0.8 0.8 0.8v-1.6zM18.9 16.95c0.442 0 0.8-0.358 0.8-0.8s-0.358-0.8-0.8-0.8v1.6zM4.334 1.616h10.394v-1.6h-10.394v1.6zM14.136 1.355l7.239 7.963 1.184-1.076-7.239-7.963-1.184 1.076zM21.167 8.78v18.87h1.6v-18.87h-1.6zM21.167 27.65c0 0.398-0.158 0.779-0.439 1.061l1.131 1.131c0.581-0.581 0.908-1.37 0.908-2.192h-1.6zM20.728 28.71c-0.281 0.281-0.663 0.439-1.061 0.439v1.6c0.822 0 1.611-0.327 2.192-0.908l-1.131-1.131zM19.667 29.15h-15.333v1.6h15.333v-1.6zM4.334 29.15c-0.398 0-0.779-0.158-1.061-0.439l-1.131 1.131c0.581 0.581 1.37 0.908 2.192 0.908v-1.6zM3.273 28.71c-0.281-0.281-0.439-0.663-0.439-1.061h-1.6c0 0.822 0.327 1.611 0.908 2.192l1.131-1.131zM2.834 27.65v-24.533h-1.6v24.533h1.6zM2.834 3.116c0-0.398 0.158-0.779 0.439-1.061l-1.131-1.131c-0.581 0.581-0.908 1.37-0.908 2.192h1.6zM3.273 2.056c0.281-0.281 0.663-0.439 1.061-0.439v-1.6c-0.822 0-1.611 0.327-2.192 0.908l1.131 1.131zM5.1 23.083h13.8v-1.6h-13.8v1.6zM5.1 26.15h9.2v-1.6h-9.2v1.6zM5.839 18.757l3.833-9.2-1.477-0.615-3.833 9.2 1.477 0.615zM8.195 9.557l3.833 9.2 1.477-0.615-3.833-9.2-1.477 0.615zM12.767 17.65h-7.667v1.6h7.667v-1.6zM6.059 16.95h5.75v-1.6h-5.75v1.6zM15.8 13.85v4.6h1.6v-4.6h-1.6zM14.3 16.95h4.6v-1.6h-4.6v1.6z"></path>
</symbol>
<symbol id="icon-profits" viewBox="0 0 43 32">
<path d="M40.318 1.173l-9.338 1.125c-0.309 0.038-0.441 0.417-0.22 0.637l2.78 2.78-10.594 10.594-4.772-4.767c-0.295-0.295-0.769-0.291-1.059 0l-15.080 15.084c-0.070 0.070-0.109 0.166-0.109 0.265s0.039 0.194 0.109 0.265l2.109 2.119c0.145 0.145 0.384 0.145 0.53 0l12.97-12.966 4.767 4.767c0.295 0.291 0.769 0.291 1.059 0l12.722-12.713 2.78 2.78c0.050 0.050 0.113 0.084 0.181 0.1s0.14 0.012 0.206-0.011c0.066-0.023 0.125-0.064 0.169-0.119s0.072-0.121 0.081-0.19l1.125-9.338c0.033-0.239-0.173-0.445-0.417-0.413z"></path>
</symbol>
<symbol id="icon-qna" viewBox="0 0 32 32">
<path d="M13.9 1.972c1.16-1.096 3.040-1.096 4.2 0l13.030 12.308c1.16 1.096 1.16 2.869 0 3.963l-13.030 12.308c-1.16 1.095-3.038 1.095-4.196 0l-13.034-12.306c-0.276-0.26-0.495-0.569-0.644-0.909s-0.226-0.704-0.226-1.073c0-0.368 0.077-0.733 0.226-1.073s0.368-0.649 0.644-0.909l13.030-12.31zM16.7 3.294c-0.186-0.175-0.437-0.274-0.7-0.274s-0.514 0.099-0.7 0.274l-13.032 12.306c-0.186 0.175-0.29 0.413-0.29 0.661s0.104 0.486 0.29 0.661l13.032 12.308c0.186 0.175 0.437 0.274 0.7 0.274s0.514-0.099 0.7-0.274l13.032-12.308c0.186-0.175 0.29-0.413 0.29-0.661s-0.104-0.486-0.29-0.661l-13.032-12.306z"></path>
<path d="M10.51 12.079c-0.003 0.061 0.008 0.122 0.031 0.179s0.058 0.109 0.103 0.153c0.045 0.044 0.099 0.078 0.159 0.101s0.124 0.035 0.189 0.034h1.65c0.276 0 0.496-0.213 0.532-0.472 0.18-1.239 1.080-2.142 2.684-2.142 1.372 0 2.628 0.648 2.628 2.206 0 1.199-0.748 1.751-1.93 2.59-1.346 0.924-2.412 2.002-2.336 3.753l0.006 0.41c0.002 0.124 0.056 0.242 0.149 0.329s0.22 0.136 0.351 0.135h1.622c0.133 0 0.26-0.050 0.354-0.138s0.146-0.209 0.146-0.334v-0.198c0-1.356 0.546-1.751 2.020-2.807 1.218-0.875 2.488-1.845 2.488-3.884 0-2.854-2.552-4.233-5.346-4.233-2.534 0-5.31 1.114-5.5 4.318zM13.624 22.965c0 1.007 0.85 1.751 2.020 1.751 1.218 0 2.056-0.744 2.056-1.751 0-1.043-0.84-1.776-2.058-1.776-1.168 0-2.018 0.733-2.018 1.776z"></path>
</symbol>
<symbol id="icon-reviews" viewBox="0 0 34 32">
<path d="M25.591 31.898c-0.416-0-0.822-0.132-1.167-0.378l-7.021-4.967c-0.035-0.025-0.076-0.039-0.118-0.039s-0.083 0.013-0.118 0.039l-7.021 4.967c-0.353 0.248-0.768 0.378-1.192 0.371s-0.836-0.15-1.181-0.409-0.607-0.624-0.752-1.045c-0.144-0.421-0.164-0.878-0.056-1.311l2.306-8.584c0.011-0.043 0.010-0.089-0.004-0.131s-0.038-0.080-0.072-0.107l-6.645-5.514c-0.35-0.275-0.609-0.659-0.742-1.097s-0.132-0.91 0.002-1.348c0.134-0.438 0.394-0.821 0.745-1.095s0.773-0.425 1.21-0.433l8.471-0.338c0.042-0.003 0.082-0.019 0.115-0.045s0.059-0.063 0.073-0.104l2.918-8.375c0.147-0.425 0.414-0.791 0.765-1.050s0.769-0.398 1.197-0.398c0.428 0 0.846 0.139 1.197 0.398s0.618 0.626 0.765 1.050l2.918 8.375c0.014 0.041 0.040 0.077 0.073 0.104s0.073 0.042 0.115 0.045l8.471 0.338c0.436 0.008 0.859 0.159 1.21 0.433s0.611 0.657 0.745 1.095c0.134 0.438 0.134 0.91 0.002 1.348s-0.392 0.822-0.742 1.097l-6.645 5.514c-0.034 0.027-0.060 0.064-0.073 0.107s-0.014 0.089-0.002 0.132l2.306 8.584c0.081 0.329 0.089 0.674 0.023 1.007s-0.203 0.646-0.401 0.914-0.453 0.484-0.743 0.632c-0.29 0.148-0.609 0.223-0.931 0.219zM17.29 24.526c0.417 0.013 0.82 0.159 1.158 0.417l7.021 4.967c0.036 0.029 0.079 0.044 0.124 0.045s0.088-0.015 0.124-0.043c0.036-0.028 0.063-0.067 0.075-0.113s0.012-0.094-0.003-0.138l-2.306-8.584c-0.113-0.421-0.105-0.868 0.024-1.284s0.373-0.782 0.701-1.050l6.645-5.514c0.036-0.027 0.063-0.065 0.077-0.11s0.014-0.092 0.001-0.137c-0.014-0.044-0.041-0.083-0.077-0.11s-0.079-0.041-0.124-0.041l-8.471-0.338c-0.415-0.017-0.815-0.164-1.151-0.422s-0.59-0.616-0.732-1.028l-2.918-8.375c-0.013-0.044-0.039-0.083-0.075-0.111s-0.079-0.042-0.123-0.042c-0.044 0-0.087 0.015-0.123 0.042s-0.062 0.066-0.075 0.111l-2.889 8.365c-0.142 0.412-0.397 0.77-0.732 1.028s-0.736 0.405-1.151 0.422l-8.471 0.338c-0.044-0.001-0.088 0.014-0.124 0.041s-0.063 0.066-0.077 0.11c-0.014 0.044-0.014 0.092 0.001 0.137s0.041 0.083 0.077 0.11l6.654 5.524c0.327 0.269 0.57 0.635 0.699 1.051s0.138 0.863 0.026 1.284l-2.296 8.584c-0.014 0.043-0.014 0.089-0 0.133s0.040 0.080 0.075 0.106c0.034 0.031 0.077 0.048 0.122 0.048s0.088-0.017 0.122-0.048l7.021-4.967c0.343-0.24 0.746-0.368 1.158-0.368l0.009-0.040z"></path>
</symbol>
<symbol id="icon-locked" viewBox="0 0 24 24">
<path d="M18 20.016v-10.031h-12v10.031h12zM8.906 6v2.016h6.188v-2.016q0-1.266-0.914-2.18t-2.18-0.914-2.18 0.914-0.914 2.18zM18 8.016q0.797 0 1.406 0.586t0.609 1.383v10.031q0 0.797-0.609 1.383t-1.406 0.586h-12q-0.797 0-1.406-0.586t-0.609-1.383v-10.031q0-0.797 0.609-1.383t1.406-0.586h0.984v-2.016q0-2.063 1.477-3.539t3.539-1.477 3.539 1.477 1.477 3.539v2.016h0.984zM12 17.016q-0.797 0-1.406-0.609t-0.609-1.406 0.609-1.406 1.406-0.609 1.406 0.609 0.609 1.406-0.609 1.406-1.406 0.609z"></path>
</symbol>
<symbol id="icon-unlocked" viewBox="0 0 24 24">
<path d="M18 20.016v-10.031h-12v10.031h12zM18 8.016q0.797 0 1.406 0.586t0.609 1.383v10.031q0 0.797-0.609 1.383t-1.406 0.586h-12q-0.797 0-1.406-0.586t-0.609-1.383v-10.031q0-0.797 0.609-1.383t1.406-0.586h9.094v-2.016q0-1.266-0.914-2.18t-2.18-0.914-2.18 0.914-0.914 2.18h-1.922q0-2.063 1.477-3.539t3.539-1.477 3.539 1.477 1.477 3.539v2.016h0.984zM12 17.016q-0.797 0-1.406-0.609t-0.609-1.406 0.609-1.406 1.406-0.609 1.406 0.609 0.609 1.406-0.609 1.406-1.406 0.609z"></path>
</symbol>
<symbol id="icon-chevron-right" viewBox="0 0 24 24">
<path d="M9.707 18.707l6-6c0.391-0.391 0.391-1.024 0-1.414l-6-6c-0.391-0.391-1.024-0.391-1.414 0s-0.391 1.024 0 1.414l5.293 5.293-5.293 5.293c-0.391 0.391-0.391 1.024 0 1.414s1.024 0.391 1.414 0z"></path>
</symbol>
<symbol id="icon-whatsapp" viewBox="0 0 32 32">
<path d="M27.281 4.65c-2.994-3-6.975-4.65-11.219-4.65-8.738 0-15.85 7.112-15.85 15.856 0 2.794 0.731 5.525 2.119 7.925l-2.25 8.219 8.406-2.206c2.319 1.262 4.925 1.931 7.575 1.931h0.006c0 0 0 0 0 0 8.738 0 15.856-7.113 15.856-15.856 0-4.238-1.65-8.219-4.644-11.219zM16.069 29.050v0c-2.369 0-4.688-0.637-6.713-1.837l-0.481-0.288-4.987 1.306 1.331-4.863-0.313-0.5c-1.325-2.094-2.019-4.519-2.019-7.012 0-7.269 5.912-13.181 13.188-13.181 3.519 0 6.831 1.375 9.319 3.862 2.488 2.494 3.856 5.8 3.856 9.325-0.006 7.275-5.919 13.188-13.181 13.188zM23.294 19.175c-0.394-0.2-2.344-1.156-2.706-1.288s-0.625-0.2-0.894 0.2c-0.262 0.394-1.025 1.288-1.256 1.556-0.231 0.262-0.462 0.3-0.856 0.1s-1.675-0.619-3.188-1.969c-1.175-1.050-1.975-2.35-2.206-2.744s-0.025-0.613 0.175-0.806c0.181-0.175 0.394-0.463 0.594-0.694s0.262-0.394 0.394-0.662c0.131-0.262 0.069-0.494-0.031-0.694s-0.894-2.15-1.219-2.944c-0.319-0.775-0.65-0.669-0.894-0.681-0.231-0.012-0.494-0.012-0.756-0.012s-0.694 0.1-1.056 0.494c-0.363 0.394-1.387 1.356-1.387 3.306s1.419 3.831 1.619 4.1c0.2 0.262 2.794 4.269 6.769 5.981 0.944 0.406 1.681 0.65 2.256 0.837 0.95 0.3 1.813 0.256 2.494 0.156 0.762-0.113 2.344-0.956 2.675-1.881s0.331-1.719 0.231-1.881c-0.094-0.175-0.356-0.275-0.756-0.475z"></path>
</symbol>
</defs>
</svg>
