<svg width="16" height="12" viewBox="0 0 16 12" fill="none" xmlns="http://www.w3.org/2000/svg">
<path d="M15.1191 0.439769L11.6175 0.861644C11.5015 0.875707 11.4523 1.01809 11.5349 1.10071L12.5773 2.14309L8.60462 6.11575L6.81517 4.32805C6.70443 4.21731 6.52689 4.21907 6.4179 4.32805L0.76302 9.98469C0.736849 10.0111 0.722168 10.0468 0.722168 10.084C0.722168 10.1212 0.736849 10.1569 0.76302 10.1833L1.55404 10.9779C1.60853 11.0323 1.69818 11.0323 1.75267 10.9779L6.61653 6.11575L8.40423 7.90344C8.51497 8.01243 8.69251 8.01243 8.8015 7.90344L13.5722 3.13625L14.6146 4.17864C14.6333 4.19722 14.6568 4.2102 14.6825 4.21608C14.7082 4.22196 14.735 4.22052 14.7599 4.21191C14.7848 4.2033 14.8068 4.18788 14.8234 4.16739C14.8399 4.1469 14.8504 4.12217 14.8536 4.09602L15.2755 0.594457C15.2878 0.504808 15.2105 0.427465 15.1191 0.439769Z" fill="black"/>
</svg>
