<svg width="18" height="18" viewBox="0 0 18 18" fill="none" xmlns="http://www.w3.org/2000/svg">
<path d="M7.8189 1.10916C8.4714 0.49291 9.5289 0.49291 10.1814 1.10916L17.5108 8.03241C18.1633 8.64866 18.1633 9.64635 17.5108 10.2615L10.1814 17.1848C9.5289 17.801 8.47253 17.801 7.82115 17.1848L0.489529 10.2626C0.33435 10.1163 0.211237 9.94261 0.127237 9.75136C0.0432374 9.56011 0 9.35509 0 9.14804C0 8.94098 0.0432374 8.73596 0.127237 8.54471C0.211237 8.35346 0.33435 8.17973 0.489529 8.03347L7.8189 1.10916ZM9.3939 1.85291C9.28947 1.75429 9.14784 1.69889 9.00015 1.69889C8.85247 1.69889 8.71084 1.75429 8.6064 1.85291L1.2759 8.7751C1.17148 8.87373 1.11282 9.00749 1.11282 9.14697C1.11282 9.28645 1.17148 9.42022 1.2759 9.51885L8.6064 16.4421C8.71084 16.5407 8.85247 16.5961 9.00015 16.5961C9.14784 16.5961 9.28947 16.5407 9.3939 16.4421L16.7244 9.51885C16.8288 9.42022 16.8875 9.28645 16.8875 9.14697C16.8875 9.00749 16.8288 8.87373 16.7244 8.7751L9.3939 1.85185V1.85291Z" fill="black"/>
<path d="M5.912 6.7946C5.91046 6.82891 5.91637 6.86316 5.92936 6.89523C5.94235 6.92731 5.96216 6.95654 5.98755 6.98112C6.01295 7.0057 6.0434 7.02511 6.07703 7.03817C6.11066 7.05123 6.14677 7.05765 6.18313 7.05703H7.11125C7.2665 7.05703 7.39025 6.93697 7.4105 6.79141C7.51175 6.09441 8.018 5.58654 8.92025 5.58654C9.692 5.58654 10.3985 5.95097 10.3985 6.82754C10.3985 7.50222 9.97775 7.81247 9.31288 8.28422C8.55575 8.80379 7.95613 9.41047 7.99888 10.3954L8.00225 10.626C8.00343 10.6957 8.03358 10.7622 8.0862 10.8111C8.13882 10.86 8.20968 10.8874 8.2835 10.8873H9.19588C9.27047 10.8873 9.34201 10.8594 9.39475 10.8095C9.44749 10.7597 9.47713 10.6922 9.47713 10.6217V10.5102C9.47713 9.74728 9.78425 9.52522 10.6134 8.93128C11.2985 8.43935 12.0129 7.89322 12.0129 6.74679C12.0129 5.14135 10.5774 4.36572 9.00575 4.36572C7.58038 4.36572 6.01888 4.9926 5.912 6.7946ZM7.66363 12.9178C7.66363 13.4841 8.14175 13.9027 8.79988 13.9027C9.485 13.9027 9.95638 13.4841 9.95638 12.9178C9.95638 12.3313 9.48388 11.919 8.79875 11.919C8.14175 11.919 7.66363 12.3313 7.66363 12.9178Z" fill="black"/>
</svg>
