<svg width="18" height="17" viewBox="0 0 18 17" fill="none" xmlns="http://www.w3.org/2000/svg">
<path d="M13.5951 16.9456C13.3741 16.9454 13.1582 16.8755 12.9751 16.745L9.24508 14.1061C9.2267 14.0927 9.2049 14.0856 9.18258 14.0856C9.16025 14.0856 9.13845 14.0927 9.12008 14.1061L5.39008 16.745C5.20277 16.877 4.98186 16.9458 4.75666 16.9421C4.53147 16.9385 4.31266 16.8626 4.12928 16.7246C3.9459 16.5866 3.80663 16.393 3.72997 16.1694C3.65331 15.9459 3.64289 15.703 3.70008 15.4731L4.92508 10.9131C4.93087 10.8902 4.93017 10.8659 4.92306 10.8434C4.91595 10.8209 4.90274 10.8011 4.88508 10.7864L1.35508 7.85725C1.16925 7.71112 1.0314 7.50727 0.960869 7.27427C0.890337 7.04127 0.890657 6.79082 0.961782 6.55802C1.03291 6.32523 1.17127 6.12177 1.35747 5.97617C1.54368 5.83057 1.76838 5.75013 2.00008 5.74614L6.50008 5.56669C6.5222 5.56508 6.54341 5.55675 6.56116 5.5427C6.5789 5.52866 6.59242 5.50949 6.60008 5.48753L8.15008 1.03836C8.22821 0.812808 8.37011 0.618046 8.55658 0.480443C8.74304 0.34284 8.96506 0.269043 9.19258 0.269043C9.42009 0.269043 9.64211 0.34284 9.82858 0.480443C10.015 0.618046 10.1569 0.812808 10.2351 1.03836L11.7851 5.48753C11.7927 5.50949 11.8063 5.52866 11.824 5.5427C11.8417 5.55675 11.863 5.56508 11.8851 5.56669L16.3851 5.74614C16.6168 5.75013 16.8415 5.83057 17.0277 5.97617C17.2139 6.12177 17.3522 6.32523 17.4234 6.55802C17.4945 6.79082 17.4948 7.04127 17.4243 7.27427C17.3538 7.50727 17.2159 7.71112 17.0301 7.85725L13.5001 10.7864C13.4819 10.8006 13.4683 10.8204 13.4611 10.8431C13.4539 10.8657 13.4536 10.8902 13.4601 10.9131L14.6851 15.4731C14.7281 15.648 14.7323 15.831 14.6975 16.0079C14.6627 16.1849 14.5898 16.3509 14.4844 16.4933C14.379 16.6357 14.244 16.7506 14.0897 16.829C13.9355 16.9074 13.7663 16.9473 13.5951 16.9456ZM9.18508 13.0295C9.40649 13.0366 9.62076 13.1138 9.80008 13.2511L13.5301 15.89C13.549 15.9052 13.572 15.9135 13.5958 15.9137C13.6195 15.9139 13.6427 15.906 13.6618 15.8911C13.6809 15.8763 13.695 15.8553 13.7019 15.8313C13.7088 15.8073 13.7082 15.7816 13.7001 15.7581L12.4751 11.1981C12.4148 10.9744 12.4192 10.7368 12.4878 10.5158C12.5564 10.2948 12.6861 10.1005 12.8601 9.9578L16.3901 7.02864C16.4093 7.01436 16.4237 6.99394 16.4312 6.97038C16.4386 6.94682 16.4387 6.92136 16.4315 6.89773C16.4242 6.87411 16.4099 6.85357 16.3908 6.83914C16.3716 6.8247 16.3486 6.81713 16.3251 6.81753L11.8251 6.63808C11.6047 6.62902 11.3919 6.55088 11.2138 6.41364C11.0357 6.27641 10.9004 6.08629 10.8251 5.86753L9.27508 1.41836C9.26809 1.39474 9.25413 1.37409 9.23524 1.35943C9.21636 1.34476 9.19352 1.33686 9.17008 1.33686C9.14663 1.33686 9.1238 1.34476 9.10491 1.35943C9.08602 1.37409 9.07207 1.39474 9.06508 1.41836L7.53008 5.86225C7.45475 6.08101 7.31941 6.27113 7.14131 6.40837C6.96321 6.5456 6.75042 6.62374 6.53008 6.6328L2.03008 6.81225C2.00655 6.81185 1.98352 6.81942 1.96437 6.83386C1.94522 6.84829 1.93096 6.86883 1.92369 6.89246C1.91641 6.91608 1.91651 6.94154 1.92396 6.9651C1.93141 6.98866 1.94582 7.00908 1.96508 7.02336L5.50008 9.9578C5.67355 10.1009 5.80278 10.2953 5.87133 10.5161C5.93989 10.737 5.94467 10.9744 5.88508 11.1981L4.66508 15.7581C4.6578 15.7809 4.65776 15.8056 4.66498 15.8285C4.6722 15.8513 4.68627 15.8711 4.70508 15.8847C4.72319 15.9011 4.74624 15.9101 4.77008 15.9101C4.79391 15.9101 4.81696 15.9011 4.83508 15.8847L8.56508 13.2459C8.74737 13.1182 8.96133 13.0503 9.18008 13.0506L9.18508 13.0295Z" fill="black"/>
</svg>
