<svg width="18" height="18" viewBox="0 0 18 18" fill="none" xmlns="http://www.w3.org/2000/svg">
<path d="M9.67911 9.16452L3.40244 10.2112C3.33028 10.2232 3.26256 10.2541 3.2061 10.3006C3.14963 10.3471 3.10641 10.4077 3.08078 10.4762L0.916611 16.2737C0.709945 16.807 1.26744 17.3154 1.77911 17.0595L16.7791 9.55952C16.883 9.50764 16.9704 9.42785 17.0315 9.32908C17.0926 9.23031 17.1249 9.11648 17.1249 9.00035C17.1249 8.88423 17.0926 8.7704 17.0315 8.67163C16.9704 8.57286 16.883 8.49307 16.7791 8.44119L1.77911 0.941188C1.26744 0.685355 0.709945 1.19452 0.916611 1.72702L3.08161 7.52452C3.10712 7.5932 3.15029 7.65394 3.20677 7.70061C3.26324 7.74728 3.33102 7.77824 3.40328 7.79036L9.67994 8.83619C9.71857 8.84296 9.75358 8.86313 9.7788 8.89315C9.80402 8.92318 9.81785 8.96114 9.81785 9.00035C9.81785 9.03957 9.80402 9.07753 9.7788 9.10756C9.75358 9.13758 9.71774 9.15775 9.67911 9.16452Z" fill="black"/>
</svg>
